# xmcd
#
# Track frame offsets: 
#        150
#        21116
#        40986
#        59894
#        75864
#        98626
#        122399
#        141264
#        159160
#        177999
#
# Disc length: 2607 seconds
#
# Revision: 0
# Processed by: cddbd v1.5.2PL0 Copyright (c) Steve Scherf et al.
# Submitted via: ExactAudioCopyFreeDBPlugin 1.0
#
DISCID=760a2d0a
DTITLE=Sade - The Very Best Of Sade
DYEAR=2001
DGENRE=Pop
TTITLE0=By Your Side
TTITLE1=Smooth Operator
TTITLE2=Never As Good As The First Time
TTITLE3=Paradise
TTITLE4=Hang On To Your Love
TTITLE5=No Ordinary Love
TTITLE6=Sweet Taboo
TTITLE7=Nothing Can Come Between Us
TTITLE8=Never As Good As  The First Time (Sax)
TTITLE9=Sweetest Taboo (Guitar)
EXTD=
EXTT0=
EXTT1=
EXTT2=
EXTT3=
EXTT4=
EXTT5=
EXTT6=
EXTT7=
EXTT8=
EXTT9=
PLAYORDER=
